# xmcd CD database file
#
# Track frame offsets:
#	150
#	25112
#	42480
#	63595
#	85887
#	97877
#	114952
#	137340
#	158102
#	172220
#	203552
#
# Disc length: 2955 seconds
#
# Revision: 2
# Processed by: cddbd v1.4PL0 Copyright (c) Steve Scherf et al.
# Submitted via: CDex 1.50beta10
#
DISCID=880b890b
DTITLE=Dave Thompson - Little Dave And Big Love
DYEAR=1995
DGENRE=Blues
TTITLE0=Standing Up On My Own
TTITLE1=You Took My Baby
TTITLE2=After Hours Bar
TTITLE3=I'm Having It So Hard
TTITLE4=Hey Momma
TTITLE5=Why Do You Treat Me This Way
TTITLE6=Instrumental #7
TTITLE7=Got A Bad Feeling
TTITLE8=Ain't It A Shame
TTITLE9=I Don't Care What Nobody Say
TTITLE10=Mississippi Bay
EXTD=YEAR: 1995
EXTT0=set  I
EXTT1=
EXTT2=
EXTT3=
EXTT4=
EXTT5=
EXTT6=set II
EXTT7=
EXTT8=
EXTT9=
EXTT10=
PLAYORDER=
